<svg xmlns="http://www.w3.org/2000/svg" xmlns:xlink="http://www.w3.org/1999/xlink" width="500" zoomAndPan="magnify" viewBox="0 0 375 374.999991" height="500" preserveAspectRatio="xMidYMid meet" version="1.0"><defs><g/><clipPath id="ba4618ffce"><path d="M 6.785156 6.785156 L 368.214844 6.785156 L 368.214844 368.214844 L 6.785156 368.214844 Z M 6.785156 6.785156 " clip-rule="nonzero"/></clipPath><clipPath id="5d6a4f11d5"><path d="M 26.285156 6.785156 L 348.714844 6.785156 C 359.484375 6.785156 368.214844 15.515625 368.214844 26.285156 L 368.214844 348.714844 C 368.214844 359.484375 359.484375 368.214844 348.714844 368.214844 L 26.285156 368.214844 C 15.515625 368.214844 6.785156 359.484375 6.785156 348.714844 L 6.785156 26.285156 C 6.785156 15.515625 15.515625 6.785156 26.285156 6.785156 Z M 26.285156 6.785156 " clip-rule="nonzero"/></clipPath><clipPath id="666e9c362e"><path d="M 0.785156 0.785156 L 362.214844 0.785156 L 362.214844 362.214844 L 0.785156 362.214844 Z M 0.785156 0.785156 " clip-rule="nonzero"/></clipPath><clipPath id="e430d34308"><path d="M 20.285156 0.785156 L 342.714844 0.785156 C 353.484375 0.785156 362.214844 9.515625 362.214844 20.285156 L 362.214844 342.714844 C 362.214844 353.484375 353.484375 362.214844 342.714844 362.214844 L 20.285156 362.214844 C 9.515625 362.214844 0.785156 353.484375 0.785156 342.714844 L 0.785156 20.285156 C 0.785156 9.515625 9.515625 0.785156 20.285156 0.785156 Z M 20.285156 0.785156 " clip-rule="nonzero"/></clipPath><clipPath id="40ce47e21a"><rect x="0" width="363" y="0" height="363"/></clipPath><clipPath id="4e604becc3"><path d="M 42.730469 79.136719 L 109 79.136719 L 109 295.886719 L 42.730469 295.886719 Z M 42.730469 79.136719 " clip-rule="nonzero"/></clipPath><clipPath id="d1363df1c2"><path d="M 267 79.136719 L 333.242188 79.136719 L 333.242188 295.886719 L 267 295.886719 Z M 267 79.136719 " clip-rule="nonzero"/></clipPath><clipPath id="68596ed4de"><rect x="0" width="113" y="0" height="263"/></clipPath></defs><g clip-path="url(#ba4618ffce)"><g clip-path="url(#5d6a4f11d5)"><g transform="matrix(1, 0, 0, 1, 6, 6)"><g clip-path="url(#40ce47e21a)"><g clip-path="url(#666e9c362e)"><g clip-path="url(#e430d34308)"><path fill="#1649ff" d="M 0.785156 0.785156 L 362.214844 0.785156 L 362.214844 362.214844 L 0.785156 362.214844 Z M 0.785156 0.785156 " fill-opacity="1" fill-rule="nonzero"/></g></g></g></g></g></g><g clip-path="url(#4e604becc3)"><path fill="#efefef" d="M 102.972656 103.214844 L 108.992188 103.214844 L 108.992188 79.136719 L 102.972656 79.136719 C 83.023438 79.136719 66.851562 95.308594 66.851562 115.257812 L 66.851562 157.398438 C 66.851562 161.1875 65.070312 164.753906 62.035156 167.03125 L 47.589844 177.867188 C 44.695312 180.035156 42.933594 183.386719 42.78125 187 C 42.632812 190.609375 44.113281 194.097656 46.8125 196.5 L 62.808594 210.714844 C 65.382812 213 66.851562 216.273438 66.851562 219.714844 L 66.851562 259.742188 C 66.851562 279.691406 83.023438 295.863281 102.972656 295.863281 L 108.992188 295.863281 L 108.992188 271.78125 L 102.972656 271.78125 C 96.324219 271.78125 90.933594 266.390625 90.933594 259.742188 L 90.933594 219.714844 C 90.933594 209.394531 86.519531 199.570312 78.808594 192.714844 L 73.828125 188.289062 L 76.484375 186.292969 C 85.582031 179.472656 90.933594 168.765625 90.933594 157.398438 L 90.933594 115.257812 C 90.933594 108.605469 96.324219 103.214844 102.972656 103.214844 Z M 102.972656 103.214844 " fill-opacity="1" fill-rule="evenodd"/></g><g clip-path="url(#d1363df1c2)"><path fill="#efefef" d="M 273.207031 103.214844 L 267.1875 103.214844 L 267.1875 79.136719 L 273.207031 79.136719 C 293.15625 79.136719 309.328125 95.308594 309.328125 115.257812 L 309.328125 157.398438 C 309.328125 161.1875 311.113281 164.753906 314.144531 167.03125 L 328.59375 177.867188 C 331.484375 180.035156 333.25 183.386719 333.398438 187 C 333.550781 190.609375 332.070312 194.097656 329.367188 196.5 L 313.371094 210.714844 C 310.800781 213 309.328125 216.273438 309.328125 219.714844 L 309.328125 259.742188 C 309.328125 279.691406 293.15625 295.863281 273.207031 295.863281 L 267.1875 295.863281 L 267.1875 271.78125 L 273.207031 271.78125 C 279.859375 271.78125 285.25 266.390625 285.25 259.742188 L 285.25 219.714844 C 285.25 209.394531 289.660156 199.570312 297.375 192.714844 L 302.355469 188.289062 L 299.695312 186.292969 C 290.601562 179.472656 285.25 168.765625 285.25 157.398438 L 285.25 115.257812 C 285.25 108.605469 279.859375 103.214844 273.207031 103.214844 Z M 273.207031 103.214844 " fill-opacity="1" fill-rule="evenodd"/></g><g transform="matrix(1, 0, 0, 1, 132, 52)"><g clip-path="url(#68596ed4de)"><g fill="#ffffff" fill-opacity="1"><g transform="translate(2.59999, 208.35397)"><g><path d="M 105.921875 0 L 14.203125 0 L 14.203125 -144.453125 C 14.203125 -144.597656 13.988281 -145.675781 13.5625 -147.6875 C 13.132812 -149.695312 12.664062 -151.773438 12.15625 -153.921875 C 11.65625 -156.078125 11.40625 -157.296875 11.40625 -157.578125 L 44.125 -157.578125 L 44.125 -21.3125 L 105.921875 -21.3125 Z M 105.921875 0 "/></g></g></g></g></g></svg>